<?xml version="1.0" standalone="no"?>
<!DOCTYPE svg PUBLIC "-//W3C//DTD SVG 20010904//EN"
 "http://www.w3.org/TR/2001/REC-SVG-20010904/DTD/svg10.dtd">
<svg version="1.0" xmlns="http://www.w3.org/2000/svg"
 width="400.000000pt" height="400.000000pt" viewBox="0 0 400.000000 400.000000"
 preserveAspectRatio="xMidYMid meet">

<g transform="translate(0.000000,400.000000) scale(0.100000,-0.100000)"
fill="#000000" stroke="none">
<path d="M0 2000 l0 -2000 2000 0 2000 0 0 2000 0 2000 -2000 0 -2000 0 0
-2000z m1499 1165 c89 -21 176 -70 241 -135 133 -133 189 -305 189 -580 1
-558 -210 -870 -628 -930 -75 -11 -313 -12 -351 -1 l-25 7 0 139 c0 118 2 139
15 137 190 -42 402 -12 513 72 90 69 145 188 161 356 6 64 6 65 -11 40 -43
-61 -99 -112 -152 -137 -53 -26 -64 -28 -191 -28 -125 0 -139 2 -192 27 -67
31 -147 102 -182 162 -55 95 -70 160 -70 316 0 129 3 153 25 221 59 174 178
288 349 333 72 19 229 20 309 1z m1266 0 c100 -26 165 -63 241 -139 118 -118
178 -276 191 -501 12 -230 -31 -477 -113 -645 -86 -174 -241 -297 -434 -345
-73 -18 -341 -32 -414 -21 l-46 7 0 144 0 144 31 -9 c58 -17 193 -22 266 -11
202 31 302 107 357 273 14 41 28 109 32 149 l6 74 -28 -35 c-49 -61 -87 -92
-144 -119 -50 -24 -66 -26 -185 -26 -126 0 -132 1 -198 32 -117 56 -194 155
-232 298 -21 80 -22 260 -2 346 46 194 184 340 363 383 80 19 236 20 309 1z
m-1618 -1800 c59 -18 106 -65 122 -122 6 -21 11 -125 11 -231 l0 -193 -57 3
c-55 3 -58 4 -67 36 -11 38 -16 39 -42 11 -32 -35 -70 -49 -134 -49 -118 0
-175 54 -175 167 0 73 19 105 86 143 36 20 62 25 137 28 l92 4 0 33 c0 68 -71
87 -166 45 -26 -11 -48 -19 -49 -18 -2 2 -14 26 -28 54 l-26 51 37 17 c84 37
179 45 259 21z m600 -10 l41 -16 -20 -52 c-11 -28 -21 -55 -24 -58 -2 -4 -21
-1 -41 7 -122 43 -193 -8 -193 -138 0 -126 59 -177 169 -146 31 8 64 18 74 23
16 7 18 2 15 -56 -3 -62 -4 -65 -38 -81 -25 -13 -59 -18 -116 -18 -161 0 -241
77 -251 243 -10 155 44 258 157 298 64 23 161 20 227 -6z m239 -26 l7 -51 36
38 c52 54 117 76 165 58 12 -5 14 -16 10 -52 -11 -93 -10 -92 -60 -92 -48 0
-91 -17 -115 -46 -10 -13 -15 -60 -19 -188 l-5 -171 -72 -3 -73 -3 0 281 0
280 60 0 59 0 7 -51z m621 23 c79 -41 123 -126 123 -239 l0 -53 -171 0 c-166
0 -170 -1 -165 -20 3 -11 8 -29 12 -40 3 -10 19 -31 35 -45 38 -32 100 -33
191 -5 34 11 64 20 66 20 1 0 2 -27 2 -59 l0 -59 -47 -16 c-61 -21 -195 -21
-256 0 -57 19 -128 93 -145 152 -17 55 -15 171 3 223 40 113 131 173 250 166
35 -3 78 -13 102 -25z m503 9 c66 -20 71 -29 44 -88 l-23 -52 -47 20 c-50 23
-128 29 -145 12 -25 -25 -2 -49 92 -94 58 -29 106 -59 123 -80 26 -30 28 -38
24 -100 -4 -78 -25 -109 -93 -140 -46 -21 -194 -26 -257 -8 l-38 10 0 64 0 64
42 -15 c52 -18 139 -28 172 -20 29 7 43 41 25 62 -6 8 -54 35 -105 59 -106 51
-135 83 -142 155 -7 77 26 123 116 156 40 16 150 13 212 -5z"/>
<path d="M1288 2891 c-86 -28 -139 -115 -146 -242 -8 -130 37 -233 115 -265
47 -20 150 -17 198 5 49 22 102 75 121 118 18 41 18 147 0 205 -18 61 -68 131
-111 158 -39 24 -132 35 -177 21z"/>
<path d="M2540 2884 c-46 -20 -77 -50 -103 -99 -19 -35 -22 -56 -22 -160 0
-113 2 -123 27 -167 40 -68 96 -92 194 -86 62 4 82 10 117 34 100 71 129 168
89 301 -47 152 -180 230 -302 177z"/>
<path d="M1004 1060 c-26 -10 -54 -48 -54 -72 0 -30 37 -58 76 -58 51 0 104
53 104 104 l0 36 -52 -1 c-29 0 -63 -4 -74 -9z"/>
<path d="M2464 1263 c-28 -5 -52 -32 -64 -72 l-9 -31 99 0 99 0 -10 32 c-15
54 -59 81 -115 71z"/>
</g>
</svg>
