<?xml version="1.0" standalone="no"?>
<!DOCTYPE svg PUBLIC "-//W3C//DTD SVG 20010904//EN"
 "http://www.w3.org/TR/2001/REC-SVG-20010904/DTD/svg10.dtd">
<svg version="1.0" xmlns="http://www.w3.org/2000/svg"
 width="225.000000pt" height="225.000000pt" viewBox="0 0 225.000000 225.000000"
 preserveAspectRatio="xMidYMid meet">

<g transform="translate(0.000000,225.000000) scale(0.100000,-0.100000)"
fill="#000000" stroke="none">
<path d="M518 1819 c-15 -6 -36 -25 -48 -43 -20 -33 -20 -47 -20 -631 0 -539
2 -600 17 -625 9 -16 27 -33 40 -39 16 -8 215 -11 629 -11 l606 0 34 34 34 34
0 601 c0 527 -2 606 -16 632 -30 59 -27 59 -666 58 -359 0 -593 -4 -610 -10z
m852 -453 l0 -114 40 19 c26 13 60 19 102 19 182 0 295 -198 203 -356 -27 -47
-73 -86 -120 -104 -47 -18 -141 -14 -185 8 -38 18 -40 18 -40 2 0 -14 -10 -19
-50 -22 l-50 -3 0 333 0 332 50 0 50 0 0 -114z m-730 -85 c0 -4 20 -4 44 2 55
12 104 3 150 -28 l36 -24 36 24 c67 45 157 43 226 -6 58 -42 68 -80 68 -269
l0 -170 -50 0 -50 0 0 161 0 161 -30 30 c-27 26 -36 30 -68 25 -22 -4 -46 -17
-59 -32 -22 -25 -23 -35 -23 -186 l0 -159 -50 0 -50 0 0 161 0 161 -29 29
c-37 36 -79 38 -118 5 l-28 -24 -5 -164 -5 -163 -47 -3 -48 -3 0 240 0 241 50
0 c28 0 50 -4 50 -9z"/>
<path d="M1433 1168 c-112 -80 -61 -248 75 -248 24 0 53 5 64 11 55 29 88 99
73 156 -3 15 -23 44 -44 65 -34 34 -44 38 -87 38 -35 0 -59 -7 -81 -22z"/>
</g>
</svg>
