<svg width="9161" height="2276" viewBox="0 0 9161 2276" fill="none" xmlns="http://www.w3.org/2000/svg">
<path fill-rule="evenodd" clip-rule="evenodd" d="M4616.34 2264.27L4907.56 1558.45H5057.39L5351.42 2264.13H5192.23L5125.96 2099.8H4837.79L4771.78 2264.27H4616.34ZM4981.52 1741.65L5070.21 1961.56H4893.27L4981.52 1741.65ZM5502.43 2252.21C5553.06 2266.67 5606 2273.91 5661.23 2273.91C5726.98 2273.91 5781.23 2264.04 5823.96 2244.32C5867.36 2224.59 5899.91 2198.62 5921.61 2166.4C5943.31 2134.18 5954.15 2098.68 5954.15 2059.88C5954.15 2023.72 5946.59 1993.8 5931.47 1970.13C5917 1946.46 5897.94 1927.39 5874.27 1912.92C5850.59 1898.46 5824.29 1886.95 5795.36 1878.4C5767.09 1869.86 5738.49 1862.3 5709.56 1855.72C5681.28 1849.14 5655.31 1842.57 5631.64 1835.99C5607.97 1829.42 5588.9 1820.87 5574.43 1810.35C5559.97 1799.17 5552.74 1784.71 5552.74 1766.95C5552.74 1751.83 5557.01 1738.68 5565.56 1727.5C5574.11 1715.67 5588.24 1706.13 5607.97 1698.9C5627.69 1691.67 5653.01 1688.05 5683.91 1688.05C5714.82 1688.05 5746.38 1692.65 5778.6 1701.86C5810.81 1710.41 5843.03 1723.89 5875.25 1742.3L5924.57 1620.98C5892.35 1600.6 5855.2 1585.48 5813.12 1575.61C5771.03 1565.09 5728.29 1559.83 5684.9 1559.83C5619.8 1559.83 5565.56 1569.7 5522.16 1589.42C5479.42 1608.49 5447.2 1634.46 5425.5 1667.34C5404.46 1699.56 5393.94 1735.39 5393.94 1774.84C5393.94 1811.67 5401.18 1841.91 5415.64 1865.58C5430.76 1889.25 5450.16 1908.32 5473.83 1922.79C5497.5 1937.25 5523.48 1949.09 5551.75 1958.29C5580.68 1967.5 5609.28 1975.39 5637.56 1981.97C5666.49 1987.88 5692.79 1994.46 5716.46 2001.69C5740.13 2008.27 5759.2 2017.14 5773.66 2028.32C5788.13 2038.84 5795.36 2053.31 5795.36 2071.72C5795.36 2086.18 5790.76 2099 5781.55 2110.18C5772.35 2121.36 5757.88 2130.24 5738.16 2136.81C5719.09 2142.73 5693.77 2145.69 5662.21 2145.69C5620.79 2145.69 5579.69 2139.11 5538.93 2125.96C5498.82 2112.16 5463.97 2094.73 5434.38 2073.69L5380.14 2194.02C5411.04 2217.69 5451.81 2237.08 5502.43 2252.21ZM6054.89 2254.37V1563.96H6187.05L6530.28 1982.82V1563.96H6688.08V2254.37H6556.91L6212.69 1835.32V2254.37H6054.89ZM6851.46 1563.96V2254.37H7011.23V1563.96H6851.46ZM7175.13 2254.37V1563.96H7473.97C7535.78 1563.96 7589.04 1574.16 7633.75 1594.54C7678.46 1614.27 7712.98 1642.87 7737.31 1680.35C7761.64 1717.83 7773.8 1762.54 7773.8 1814.48C7773.8 1865.77 7761.64 1910.15 7737.31 1947.63C7712.98 1985.11 7678.46 2014.04 7633.75 2034.42C7589.04 2054.15 7535.78 2064.01 7473.97 2064.01H7334.9V2254.37H7175.13ZM7465.09 1933.82H7334.9V1694.15H7465.09C7514.41 1694.15 7551.23 1704.68 7575.56 1725.72C7599.89 1746.76 7612.05 1776.35 7612.05 1814.48C7612.05 1851.96 7599.89 1881.22 7575.56 1902.26C7551.23 1923.3 7514.41 1933.82 7465.09 1933.82ZM8046.64 1966.37V2126.15H8422.42V2254.37H7887.85V1563.96H8409.6V1692.18H8046.64V1842.1H8367.19V1966.37H8046.64ZM8549.5 1563.96V2254.37H8709.28V2062.04H8848.35C8850.87 2062.04 8853.37 2062.02 8855.86 2061.99L8988.4 2254.37H9161L9006.77 2033.04C9007.23 2032.85 9007.68 2032.65 9008.13 2032.45C9052.84 2012.73 9087.36 1984.45 9111.69 1947.63C9136.01 1910.15 9148.18 1865.77 9148.18 1814.48C9148.18 1762.54 9136.01 1717.83 9111.69 1680.35C9087.36 1642.87 9052.84 1614.27 9008.13 1594.54C8963.42 1574.16 8910.16 1563.96 8848.35 1563.96H8549.5ZM8709.28 1934.81H8839.47C8888.79 1934.81 8925.61 1924.29 8949.94 1903.25C8974.26 1881.55 8986.43 1851.96 8986.43 1814.48C8986.43 1776.35 8974.26 1746.76 8949.94 1725.72C8925.61 1704.68 8888.79 1694.15 8839.47 1694.15H8709.28V1934.81ZM3499.01 1568.25L3713.63 2254.33H3876.7L4025.41 1789.47L4170.04 2254.33H4333.11L4547.73 1568.25H4402.46L4249.61 2054.09L4099.75 1568.25H3959.17L3804.47 2050.51L3656.46 1568.25H3499.01Z" fill="url(#paint0_linear_3201_8451)"/>
<path d="M539.062 499.93H0C227.06 926.279 707.642 1829.94 813.494 2033.81C919.346 2237.67 1181.04 2046.88 1298.65 1925.99L1185.94 1690.77L539.062 499.93Z" fill="url(#paint1_linear_3201_8451)"/>
<path d="M1127.13 1734.87C975.212 2014.2 823.295 2004.4 774.289 1965.2C1024.22 2435.65 1328.05 2273.93 1440.77 2097.51C1666.19 1658.1 2135.67 744.957 2210.16 607.741C2284.64 470.525 2433.95 439.488 2504.19 441.121H2979.54C3022.67 441.121 3020.38 490.127 3013.85 514.63L2371.87 1710.37C2331.04 1782.24 2273.86 1960.3 2411.08 2097.51C2548.29 2234.73 2674.08 2118.75 2719.81 2043.61L3552.91 475.425C3641.12 245.099 3400.99 0.0703125 3180.47 0.0703125H2342.47C2064.12 27.5135 1847.51 305.539 1774 441.121C1625.35 743.323 1293.84 1428.33 1127.13 1734.87Z" fill="url(#paint2_linear_3201_8451)"/>
<path d="M980.113 0.0703125H1489.77L2366.97 1695.67C2479.69 1921.09 2641.41 2048.51 2700.21 2063.21C2464.99 2469.96 2102.34 2195.52 2028.83 2028.91L1872.02 1725.07L980.113 0.0703125Z" fill="url(#paint3_linear_3201_8451)"/>
<defs>
<linearGradient id="paint0_linear_3201_8451" x1="3597.02" y1="1911.28" x2="9257.17" y2="1911.28" gradientUnits="userSpaceOnUse">
<stop stop-color="#46B178"/>
<stop offset="1" stop-color="#38875C"/>
</linearGradient>
<linearGradient id="paint1_linear_3201_8451" x1="0" y1="499.93" x2="1239.84" y2="2224.93" gradientUnits="userSpaceOnUse">
<stop stop-color="#5EB889"/>
<stop offset="1" stop-color="#389061"/>
</linearGradient>
<linearGradient id="paint2_linear_3201_8451" x1="867.4" y1="2082.81" x2="3567.61" y2="215.695" gradientUnits="userSpaceOnUse">
<stop offset="0.157719" stop-color="#46B279"/>
<stop offset="1" stop-color="#35875A"/>
</linearGradient>
<linearGradient id="paint3_linear_3201_8451" x1="980.113" y1="0.0703125" x2="2533.59" y2="2273.93" gradientUnits="userSpaceOnUse">
<stop stop-color="#46B279"/>
<stop offset="1" stop-color="#348559"/>
</linearGradient>
</defs>
</svg>
