<?xml version="1.0" standalone="no"?>
<!DOCTYPE svg PUBLIC "-//W3C//DTD SVG 20010904//EN"
 "http://www.w3.org/TR/2001/REC-SVG-20010904/DTD/svg10.dtd">
<svg version="1.0" xmlns="http://www.w3.org/2000/svg"
 width="512.000000pt" height="512.000000pt" viewBox="0 0 512.000000 512.000000"
 preserveAspectRatio="xMidYMid meet">

<g transform="translate(0.000000,512.000000) scale(0.100000,-0.100000)"
fill="#000000" stroke="none">
<path d="M2705 3520 c-19 -8 -19 -9 2 -9 12 -1 29 -11 37 -23 47 -67 -23 -157
-98 -128 -24 9 -26 7 -26 -17 0 -65 77 -143 142 -143 34 0 85 35 104 72 65
122 -49 296 -161 248z"/>
<path d="M2659 3493 c-13 -16 -12 -17 4 -4 16 13 21 21 13 21 -2 0 -10 -8 -17
-17z"/>
<path d="M2208 3438 c-2 -20 -13 -38 -30 -51 -24 -18 -31 -19 -54 -8 l-27 12
6 -43 c6 -48 43 -88 80 -88 47 0 97 60 97 115 0 45 -35 95 -65 95 -2 0 -5 -14
-7 -32z"/>
<path d="M2255 3229 c-145 -21 -276 -84 -343 -165 -132 -160 -100 -373 86
-574 l60 -65 6 55 c7 65 36 495 35 524 0 20 -1 20 -9 -1 -14 -34 -67 -56 -142
-59 -80 -4 -85 5 -39 77 47 76 148 144 239 164 32 7 33 6 23 -13 -15 -28 -14
-35 4 -28 22 8 60 -12 77 -42 9 -15 39 -90 68 -167 29 -77 63 -161 76 -187 20
-39 24 -62 24 -135 l0 -88 -20 25 c-34 44 -87 152 -126 260 -20 58 -41 109
-44 113 -7 8 -14 -109 -26 -420 l-7 -171 49 -25 c120 -61 310 -113 428 -118
l59 -3 -2 85 c-2 87 -14 273 -31 464 -5 61 -10 123 -10 140 0 43 -12 24 -65
-107 -56 -139 -106 -223 -145 -243 l-27 -14 -7 52 c-11 91 -7 126 17 165 13
20 45 91 71 157 51 128 79 178 123 219 76 71 199 25 243 -90 17 -46 102 -528
126 -712 4 -29 10 -54 14 -57 15 -9 136 83 172 130 235 311 -169 786 -727 854
-101 12 -144 12 -230 0z"/>
<path d="M4011 2137 c2 -1 13 -9 24 -17 19 -14 19 -14 6 3 -7 9 -18 17 -24 17
-6 0 -8 -1 -6 -3z"/>
<path d="M1060 2080 l0 -50 60 0 60 0 0 50 0 50 -60 0 -60 0 0 -50z"/>
<path d="M1870 2041 l0 -90 -36 24 c-73 50 -165 23 -208 -60 -16 -30 -21 -58
-21 -115 1 -125 52 -193 147 -194 33 -1 55 5 77 22 36 27 43 27 39 5 -3 -15 5
-18 55 -18 l58 0 0 255 0 255 -56 3 -55 3 0 -90z m-29 -150 c21 -17 24 -28 24
-84 0 -78 -19 -107 -72 -107 -27 0 -37 6 -53 33 -24 38 -26 97 -5 137 23 44
67 53 106 21z"/>
<path d="M2030 2080 l0 -50 61 0 60 0 -3 48 -3 47 -57 3 -58 3 0 -51z"/>
<path d="M3789 2098 c0 -2 -1 -25 -2 -53 -2 -47 -3 -50 -27 -47 -38 4 -64 -5
-93 -34 l-27 -27 0 27 c0 25 -2 26 -60 26 l-60 0 0 -190 0 -190 59 0 59 0 4
116 c3 108 5 117 27 135 13 10 38 19 57 19 28 0 34 4 34 21 0 12 5 19 13 16
11 -3 14 -43 16 -209 1 -34 7 -54 24 -74 20 -23 31 -27 80 -26 31 0 60 3 65 6
4 2 6 21 4 40 -3 26 -9 36 -25 38 -28 4 -39 49 -35 146 l3 77 33 3 c29 3 32 6
32 37 0 31 -3 34 -32 37 -32 3 -33 4 -36 56 l-3 52 -55 0 c-29 0 -54 -1 -55
-2z"/>
<path d="M4052 2080 c0 -14 2 -19 5 -12 2 6 2 18 0 25 -3 6 -5 1 -5 -13z"/>
<path d="M4006 2082 c-2 -4 -1 -14 4 -22 7 -11 9 -9 7 8 -1 24 -3 26 -11 14z"/>
<path d="M3940 2051 c0 -10 29 -36 34 -30 1 2 -6 12 -16 22 -10 9 -18 13 -18
8z"/>
<path d="M4029 2033 c-13 -16 -12 -17 4 -4 16 13 21 21 13 21 -2 0 -10 -8 -17
-17z"/>
<path d="M1388 1982 c-16 -9 -28 -20 -28 -24 0 -5 -4 -8 -10 -8 -5 0 -10 9
-10 20 0 18 -7 20 -55 20 l-55 0 0 -190 0 -191 58 3 57 3 5 133 c4 117 7 135
24 148 28 20 53 17 70 -8 13 -18 16 -51 16 -150 l0 -128 60 0 60 0 0 148 c0
162 -11 205 -60 229 -35 18 -100 16 -132 -5z"/>
<path d="M2261 1982 c-38 -18 -68 -55 -73 -87 -3 -17 3 -20 45 -23 41 -3 52 1
72 22 13 14 31 26 40 26 28 0 55 -20 55 -40 0 -20 -34 -35 -107 -46 -63 -10
-100 -37 -114 -83 -34 -114 70 -186 184 -128 44 23 47 23 47 6 0 -16 8 -19 60
-19 l59 0 -4 48 c-3 26 -7 96 -10 156 -6 123 -17 149 -70 172 -48 20 -142 18
-184 -4z m146 -228 c-8 -49 -33 -74 -73 -74 -23 0 -37 6 -44 20 -18 35 -3 59
48 74 72 22 75 21 69 -20z"/>
<path d="M2706 1975 c-34 -23 -36 -23 -36 -5 0 18 -7 20 -55 20 l-55 0 0 -190
0 -190 54 0 54 0 4 129 c3 110 6 132 22 150 21 23 42 26 66 11 12 -7 16 -39
20 -147 l5 -138 53 -3 52 -3 0 130 c0 118 2 133 20 151 26 26 55 25 74 -2 13
-18 16 -51 16 -150 l0 -128 60 0 60 0 0 138 c0 212 -17 247 -120 247 -48 0
-63 -4 -84 -24 l-25 -24 -31 27 c-42 35 -103 36 -154 1z"/>
<path d="M3224 1981 c-27 -12 -46 -30 -57 -54 -25 -52 -22 -57 29 -57 35 0 54
6 76 25 34 28 56 31 84 11 32 -25 6 -49 -72 -67 -80 -18 -107 -31 -128 -61
-19 -26 -21 -87 -5 -122 26 -57 130 -71 190 -27 28 21 28 21 34 1 5 -17 15
-20 67 -20 54 0 59 2 52 18 -4 9 -11 80 -14 157 -4 99 -9 147 -20 162 -33 51
-159 69 -236 34z m146 -226 c0 -22 -8 -43 -20 -55 -22 -22 -69 -27 -88 -8 -16
16 -15 55 0 65 12 7 81 30 101 32 4 1 7 -15 7 -34z"/>
<path d="M1060 1800 l0 -190 60 0 60 0 0 190 0 190 -60 0 -60 0 0 -190z"/>
<path d="M2030 1800 l0 -190 60 0 60 0 0 190 0 190 -60 0 -60 0 0 -190z"/>
</g>
</svg>
